<?xml version="1.0" encoding="utf-8" standalone="no"?>
<!DOCTYPE svg PUBLIC "-//W3C//DTD SVG 1.1//EN"
  "http://www.w3.org/Graphics/SVG/1.1/DTD/svg11.dtd">
<svg xmlns:xlink="http://www.w3.org/1999/xlink" width="416.16pt" height="213.984pt" viewBox="0 0 416.16 213.984" xmlns="http://www.w3.org/2000/svg" version="1.1">
 <metadata>
  <rdf:RDF xmlns:dc="http://purl.org/dc/elements/1.1/" xmlns:cc="http://creativecommons.org/ns#" xmlns:rdf="http://www.w3.org/1999/02/22-rdf-syntax-ns#">
   <cc:Work>
    <dc:type rdf:resource="http://purl.org/dc/dcmitype/StillImage"/>
    <dc:format>image/svg+xml</dc:format>
    <dc:creator>
     <cc:Agent>
      <dc:title>ALIGNN domain-shift deterministic figure producer</dc:title>
     </cc:Agent>
    </dc:creator>
   </cc:Work>
  </rdf:RDF>
 </metadata>
 <defs>
  <style type="text/css">*{stroke-linejoin: round; stroke-linecap: butt}</style>
 </defs>
 <g id="figure_1">
  <g id="patch_1">
   <path d="M 0 213.984
L 416.16 213.984
L 416.16 0
L 0 0
z
" style="fill: #ffffff"/>
  </g>
  <g id="axes_1">
   <g id="patch_2">
    <path d="M 79.5168 41.528448
L 336.6432 41.528448
Q 341.46432 41.528448 341.46432 39.13344
L 341.46432 16.18128
Q 341.46432 13.786272 336.6432 13.786272
L 79.5168 13.786272
Q 74.69568 13.786272 74.69568 16.18128
L 74.69568 39.13344
Q 74.69568 41.528448 79.5168 41.528448
z
" clip-path="url(#pc1c51c67ed)" style="fill: #f4f4f4; stroke: #222222; stroke-linejoin: miter"/>
   </g>
   <g id="patch_3">
    <path d="M 21.2616 95.416128
L 181.9656 95.416128
Q 186.78672 95.416128 186.78672 93.02112
L 186.78672 61.08768
Q 186.78672 58.692672 181.9656 58.692672
L 21.2616 58.692672
Q 16.44048 58.692672 16.44048 61.08768
L 16.44048 93.02112
Q 16.44048 95.416128 21.2616 95.416128
z
" clip-path="url(#pc1c51c67ed)" style="fill: #e8f2f8; stroke: #0072b2; stroke-linejoin: miter"/>
   </g>
   <g id="patch_4">
    <path d="M 234.1944 95.416128
L 394.8984 95.416128
Q 399.71952 95.416128 399.71952 93.02112
L 399.71952 61.08768
Q 399.71952 58.692672 394.8984 58.692672
L 234.1944 58.692672
Q 229.37328 58.692672 229.37328 61.08768
L 229.37328 93.02112
Q 229.37328 95.416128 234.1944 95.416128
z
" clip-path="url(#pc1c51c67ed)" style="fill: #fbede7; stroke: #d55e00; stroke-linejoin: miter"/>
   </g>
   <g id="patch_5">
    <path d="M 17.244 155.291328
L 133.7544 155.291328
Q 138.57552 155.291328 138.57552 152.89632
L 138.57552 116.9712
Q 138.57552 114.576192 133.7544 114.576192
L 17.244 114.576192
Q 12.42288 114.576192 12.42288 116.9712
L 12.42288 152.89632
Q 12.42288 155.291328 17.244 155.291328
z
" clip-path="url(#pc1c51c67ed)" style="fill: #fff8e5; stroke: #8a6d1d; stroke-linejoin: miter"/>
   </g>
   <g id="patch_6">
    <path d="M 149.8248 155.291328
L 266.3352 155.291328
Q 271.15632 155.291328 271.15632 152.89632
L 271.15632 116.9712
Q 271.15632 114.576192 266.3352 114.576192
L 149.8248 114.576192
Q 145.00368 114.576192 145.00368 116.9712
L 145.00368 152.89632
Q 145.00368 155.291328 149.8248 155.291328
z
" clip-path="url(#pc1c51c67ed)" style="fill: #f2edf8; stroke: #6f4a8e; stroke-linejoin: miter"/>
   </g>
   <g id="patch_7">
    <path d="M 282.4056 155.291328
L 398.916 155.291328
Q 403.73712 155.291328 403.73712 152.89632
L 403.73712 116.9712
Q 403.73712 114.576192 398.916 114.576192
L 282.4056 114.576192
Q 277.58448 114.576192 277.58448 116.9712
L 277.58448 152.89632
Q 277.58448 155.291328 282.4056 155.291328
z
" clip-path="url(#pc1c51c67ed)" style="fill: #edf6ec; stroke: #39733a; stroke-linejoin: miter"/>
   </g>
   <g id="patch_8">
    <path d="M 55.4112 200.197728
L 360.7488 200.197728
Q 365.56992 200.197728 365.56992 197.80272
L 365.56992 174.85056
Q 365.56992 172.455552 360.7488 172.455552
L 55.4112 172.455552
Q 50.59008 172.455552 50.59008 174.85056
L 50.59008 197.80272
Q 50.59008 200.197728 55.4112 200.197728
z
" clip-path="url(#pc1c51c67ed)" style="fill: #fafafa; stroke: #555555; stroke-linejoin: miter"/>
   </g>
   <g id="text_1">
    <text style="font: 9.2px 'DejaVu Sans'" transform="translate(111.618719 24.870227)">JARVIS-DFT pretrained ALIGNN checkpoint</text>
    <text style="font: 9.2px 'DejaVu Sans'" transform="translate(80.948219 35.521743)">formation-energy prediction; exact test-JID overlap = 0</text>
   </g>
   <g id="text_2">
    <text style="font: 8.6px 'DejaVu Sans'" transform="translate(62.710694 69.470611)">Oxide comparator</text>
    <text style="font: 8.6px 'DejaVu Sans'" transform="translate(46.243038 79.427463)">O-bearing, including O+N</text>
    <text style="font: 8.6px 'DejaVu Sans'" transform="translate(57.308147 89.384314)">fixed test: n = 1,484</text>
   </g>
   <g id="text_3">
    <text style="font: 8.6px 'DejaVu Sans'" transform="translate(285.669884 69.470611)">Nitride target</text>
    <text style="font: 8.6px 'DejaVu Sans'" transform="translate(268.995963 79.427463)">N-bearing and O-free</text>
    <text style="font: 8.6px 'DejaVu Sans'" transform="translate(274.343416 89.384314)">fixed test: n = 242</text>
   </g>
   <g id="patch_9">
    <path d="M 174.011198 39.677046
Q 138.773488 49.612421 104.611857 59.244393
" style="fill: none; stroke: #333333; stroke-linecap: round"/>
    <path d="M 108.565235 59.999906
L 104.611857 59.244393
L 107.588294 56.534998
z
" style="fill: #333333; stroke: #333333; stroke-linecap: round"/>
   </g>
   <g id="patch_10">
    <path d="M 242.148802 39.677046
Q 277.386512 49.612421 311.548143 59.244393
" style="fill: none; stroke: #333333; stroke-linecap: round"/>
    <path d="M 308.571706 56.534998
L 311.548143 59.244393
L 307.594765 59.999906
z
" style="fill: #333333; stroke: #333333; stroke-linecap: round"/>
   </g>
   <g id="text_4">
    <text style="font: 8px 'DejaVu Sans'" transform="translate(33.83295 127.879073)">Zero-shot evaluation</text>
    <text style="font: 8px 'DejaVu Sans'" transform="translate(30.678575 137.14126)">no parameter updates</text>
    <text style="font: 8px 'DejaVu Sans'" transform="translate(35.152325 146.403447)">same fixed test sets</text>
   </g>
   <g id="text_5">
    <text style="font: 7.8px 'DejaVu Sans'" transform="translate(173.347453 128.05544)">Partial fine-tuning</text>
    <text style="font: 7.8px 'DejaVu Sans'" transform="translate(149.968781 137.086073)">last GCN block + output head</text>
    <text style="font: 7.8px 'DejaVu Sans'" transform="translate(143.597766 146.116705)">N = 10, 50, 100, 200, 500, 1,000</text>
   </g>
   <g id="text_6">
    <text style="font: 8px 'DejaVu Sans'" transform="translate(296.60205 127.879073)">From-scratch baseline</text>
    <text style="font: 8px 'DejaVu Sans'" transform="translate(299.552675 137.14126)">random initialization</text>
    <text style="font: 8px 'DejaVu Sans'" transform="translate(308.9808 146.403447)">N = 50 and 500</text>
   </g>
   <g id="patch_11">
    <path d="M 206.101484 95.314801
Q 141.79078 104.995982 78.475095 114.527376
" style="fill: none; stroke: #555555; stroke-width: 0.9; stroke-linecap: round"/>
    <path d="M 82.302933 115.771423
L 78.475095 114.527376
L 81.767036 112.211534
z
" style="fill: #555555; stroke: #555555; stroke-width: 0.9; stroke-linecap: round"/>
   </g>
   <g id="patch_12">
    <path d="M 208.08 97.019622
Q 208.08 104.99581 208.08 111.965767
" style="fill: none; stroke: #555555; stroke-width: 0.9; stroke-linecap: round"/>
    <path d="M 209.88 108.365767
L 208.08 111.965767
L 206.28 108.365767
z
" style="fill: #555555; stroke: #555555; stroke-width: 0.9; stroke-linecap: round"/>
   </g>
   <g id="patch_13">
    <path d="M 210.058516 95.314801
Q 274.36922 104.995982 337.684905 114.527376
" style="fill: none; stroke: #555555; stroke-width: 0.9; stroke-linecap: round"/>
    <path d="M 334.392964 112.211534
L 337.684905 114.527376
L 333.857067 115.771423
z
" style="fill: #555555; stroke: #555555; stroke-width: 0.9; stroke-linecap: round"/>
   </g>
   <g id="text_7">
    <text style="font: 7.6px 'DejaVu Sans'" transform="translate(177.643188 179.624687)">Audited outputs</text>
    <text style="font: 7.6px 'DejaVu Sans'" transform="translate(114.643938 188.423765)">zero-shot uncertainty • five-seed learning curves</text>
    <text style="font: 7.6px 'DejaVu Sans'" transform="translate(70.3585 197.222843)">pretrained-versus-scratch comparison • frozen-representation geometry</text>
   </g>
   <g id="patch_14">
    <path d="M 77.469624 153.222605
Q 141.788299 163.873225 205.279713 174.386857
" style="fill: none; stroke: #777777; stroke-width: 0.75; stroke-linecap: round"/>
    <path d="M 202.022138 172.022919
L 205.279713 174.386857
L 201.434018 175.574554
z
" style="fill: #777777; stroke: #777777; stroke-width: 0.75; stroke-linecap: round"/>
   </g>
   <g id="patch_15">
    <path d="M 208.08 154.898251
Q 208.08 163.87338 208.08 172.009984
" style="fill: none; stroke: #777777; stroke-width: 0.75; stroke-linecap: round"/>
    <path d="M 209.88 168.409984
L 208.08 172.009984
L 206.28 168.409984
z
" style="fill: #777777; stroke: #777777; stroke-width: 0.75; stroke-linecap: round"/>
   </g>
   <g id="patch_16">
    <path d="M 338.690376 153.222605
Q 274.371701 163.873225 210.880287 174.386857
" style="fill: none; stroke: #777777; stroke-width: 0.75; stroke-linecap: round"/>
    <path d="M 214.725982 175.574554
L 210.880287 174.386857
L 214.137862 172.022919
z
" style="fill: #777777; stroke: #777777; stroke-width: 0.75; stroke-linecap: round"/>
   </g>
  </g>
 </g>
 <defs>
  <clipPath id="pc1c51c67ed">
   <rect x="7.2" y="7.2" width="401.76" height="199.584"/>
  </clipPath>
 </defs>
</svg>
